<svg width="177" height="43" viewBox="0 0 177 43" fill="none" xmlns="http://www.w3.org/2000/svg">
<path fill-rule="evenodd" clip-rule="evenodd" d="M59.8091 14.192C58.5875 12.5473 56.9819 11.2267 55.1325 10.3453C53.283 9.464 51.2459 9.04881 49.1991 9.136C47.426 9.06316 45.6585 9.37847 44.02 10.0599C42.3815 10.7413 40.9116 11.7724 39.7131 13.081V0H35.9551V41.475H39.6031V25.111C39.6031 21.697 39.6031 19.002 41.2121 16.736C42.0629 15.4367 43.2355 14.3796 44.6158 13.6676C45.9961 12.9557 47.5371 12.613 49.0891 12.673C55.5091 12.673 58.6311 16.573 58.6311 24.61V41.475H62.2781V24.443C62.2781 20.511 62.0961 17.259 59.8091 14.191" fill="black"/>
<path fill-rule="evenodd" clip-rule="evenodd" d="M81.6451 8.802C72.8961 8.802 65.5051 16.502 65.5051 25.613C65.4734 29.9879 67.1779 34.1968 70.245 37.3168C73.3121 40.4367 77.4913 42.213 81.8661 42.256C90.8291 42.256 98.1221 34.615 98.1221 25.222C98.1094 20.8612 96.3675 16.6834 93.2786 13.6052C90.1897 10.527 86.0059 8.7996 81.6451 8.802ZM81.8681 38.775C74.7681 38.775 69.2071 32.994 69.2071 25.614C69.2071 18.358 74.8521 12.229 81.5351 12.229C83.2336 12.1944 84.9216 12.5044 86.497 13.1403C88.0725 13.7762 89.5027 14.7247 90.7014 15.9286C91.9001 17.1326 92.8424 18.5669 93.4714 20.1451C94.1004 21.7233 94.403 23.4126 94.3611 25.111C94.3611 33.029 89.1071 38.775 81.8611 38.775" fill="black"/>
<path fill-rule="evenodd" clip-rule="evenodd" d="M104.617 0H101.79V6.713H105.55V0H104.617Z" fill="black"/>
<path d="M105.55 9.69409H101.79V41.4761H105.55V9.69409Z" fill="black"/>
<path fill-rule="evenodd" clip-rule="evenodd" d="M137.159 30.749C134.759 36.077 130.823 38.779 125.473 38.779C118.288 38.779 112.873 33.096 112.873 25.56C112.873 17.805 118.221 12.176 125.589 12.176C130.958 12.176 134.849 14.836 137.159 20.086L137.403 20.642H141.348L140.828 19.361C138.064 12.549 132.675 8.802 125.641 8.802C123.452 8.80438 121.286 9.24371 119.269 10.0942C117.253 10.9447 115.426 12.1893 113.897 13.755C112.368 15.3207 111.166 17.1759 110.363 19.212C109.56 21.248 109.172 23.4239 109.221 25.612C109.305 29.9517 110.956 34.1145 113.871 37.331C115.359 38.9555 117.182 40.2372 119.214 41.0876C121.247 41.938 123.439 42.3366 125.641 42.256C132.798 42.256 138.315 38.314 140.78 31.442L141.227 30.195H137.407L137.159 30.749Z" fill="black"/>
<path fill-rule="evenodd" clip-rule="evenodd" d="M27.939 30.749C25.539 36.077 21.603 38.779 16.254 38.779C9.06699 38.779 3.64699 33.096 3.64699 25.56C3.64799 17.801 8.99999 12.172 16.366 12.172C21.733 12.172 25.627 14.832 27.936 20.082L28.181 20.638H32.123L31.603 19.357C28.845 12.549 23.454 8.802 16.42 8.802C14.2313 8.80425 12.0651 9.24348 10.0484 10.0939C8.03165 10.9444 6.20505 12.189 4.67568 13.7547C3.1463 15.3204 1.94494 17.1757 1.14204 19.2118C0.33914 21.2479 -0.0491326 23.4239 -8.49459e-06 25.612C0.0842514 29.9516 1.73593 34.1142 4.64999 37.331C6.1382 38.9552 7.96145 40.2369 9.99366 41.0872C12.0259 41.9376 14.2185 42.3363 16.42 42.256C23.577 42.256 29.094 38.314 31.56 31.442L32.007 30.195H28.187L27.939 30.749Z" fill="black"/>
<path fill-rule="evenodd" clip-rule="evenodd" d="M171.906 30.7491C169.629 35.9221 165.479 38.7701 160.224 38.7701C153.358 38.7701 148.436 34.1621 147.702 27.2091H176.664L176.643 26.2561C176.413 15.8131 169.748 8.7981 160.057 8.7981C151.157 8.7981 143.915 16.3401 143.915 25.6091C143.877 27.7864 144.273 29.9494 145.082 31.9713C145.891 33.9931 147.095 35.8331 148.625 37.3833C150.154 38.9336 151.977 40.1627 153.988 40.9988C155.999 41.8349 158.156 42.261 160.334 42.2521C167.276 42.2521 172.706 38.4291 175.623 31.4851L176.167 30.1921H172.152L171.906 30.7491ZM160.391 12.1721C166.835 12.1721 171.464 16.4911 172.674 23.5111H147.774C149.01 16.5891 153.861 12.1721 160.388 12.1721" fill="black"/>
</svg>
