<svg width="13" height="10" viewBox="0 0 13 10" fill="none" xmlns="http://www.w3.org/2000/svg">
<path d="M13 1.18385C12.5218 1.38454 12.0075 1.52029 11.468 1.58091C12.0188 1.26857 12.4415 0.774357 12.641 0.184505C12.1256 0.473877 11.5546 0.6838 10.9473 0.79695C10.4608 0.306505 9.7676 0 9.00003 0C7.52734 0 6.33292 1.13057 6.33292 2.52452C6.33292 2.7224 6.35659 2.915 6.40234 3.09988C4.18575 2.99463 2.22037 1.98965 0.904816 0.461828C0.675281 0.834604 0.543606 1.26857 0.543606 1.73115C0.543606 2.6068 1.01481 3.37984 1.73007 3.83244C1.29308 3.81945 0.881545 3.70592 0.522124 3.51633C0.521925 3.52706 0.521925 3.5378 0.521925 3.54834C0.521925 4.77153 1.44166 5.79177 2.66154 6.02353C2.43797 6.08152 2.20187 6.11221 1.95901 6.11221C1.78676 6.11221 1.61988 6.09658 1.45717 6.06721C1.79651 7.06994 2.78128 7.79987 3.94865 7.82039C3.03568 8.4976 1.88581 8.90106 0.635897 8.90106C0.421081 8.90106 0.208253 8.8892 0 8.86567C1.1797 9.58223 2.58198 10 4.08808 10C8.99386 10 11.6767 6.15325 11.6767 2.81691C11.6767 2.70752 11.6741 2.59851 11.6689 2.49045C12.1905 2.13461 12.6426 1.69011 13 1.18385Z" fill="black"/>
</svg>
