<svg width="202" height="73" viewBox="0 0 202 73" fill="none" xmlns="http://www.w3.org/2000/svg">
<path fill-rule="evenodd" clip-rule="evenodd" d="M69.0469 16.0423C67.6572 14.1824 65.8306 12.689 63.7264 11.6924C61.6223 10.6958 59.3047 10.2263 56.9759 10.325C54.959 10.2422 52.9482 10.598 51.0839 11.3677C49.2197 12.1374 47.547 13.3023 46.1827 14.7812V0H41.907V46.9013H46.0572V28.3963C46.0572 24.5342 46.0572 21.4877 47.8894 18.9254C48.8578 17.4552 50.1926 16.2591 51.764 15.4538C53.3353 14.6484 55.0897 14.2611 56.8564 14.3296C64.1615 14.3296 67.7124 18.7442 67.7124 27.8289V46.9013H71.8626V27.6402C71.8626 23.1944 71.6563 19.5166 69.0529 16.0541" fill="black"/>
<path fill-rule="evenodd" clip-rule="evenodd" d="M93.8899 9.95214C83.9351 9.95214 75.5241 18.6595 75.5241 28.9652C75.4882 33.9129 77.4282 38.6729 80.9185 42.201C84.4088 45.7291 89.1644 47.7373 94.1424 47.7851C104.339 47.7851 112.637 39.1446 112.637 28.524C112.622 23.5928 110.64 18.8686 107.126 15.3878C103.611 11.9071 98.8513 9.95382 93.8899 9.95659V9.95214ZM94.1424 43.8518C92.2073 43.8347 90.295 43.4338 88.5178 42.6726C86.7405 41.9115 85.134 40.8055 83.7923 39.4193C82.4507 38.0331 81.4009 36.3947 80.7046 34.6001C80.0082 32.8055 79.6793 30.8907 79.737 28.9681C79.737 20.7628 86.1633 13.832 93.7643 13.832C95.6973 13.7926 97.6182 14.1431 99.4111 14.8622C101.204 15.5814 102.832 16.6542 104.196 18.016C105.56 19.3777 106.632 21.0002 107.348 22.7853C108.063 24.5704 108.408 26.4812 108.36 28.4022C108.36 37.3562 102.382 43.8503 94.1424 43.8503" fill="black"/>
<path fill-rule="evenodd" clip-rule="evenodd" d="M116.817 0V7.59036H121.094V0H116.817Z" fill="black"/>
<path d="M121.09 10.9607H116.812V46.9013H121.09V10.9607Z" fill="black"/>
<path fill-rule="evenodd" clip-rule="evenodd" d="M157.046 34.7656C154.312 40.7919 149.838 43.8473 143.745 43.8473C135.568 43.8473 129.397 37.42 129.397 28.8998C129.397 20.136 135.481 13.7637 143.866 13.7637C149.974 13.7637 154.403 16.7731 157.029 22.7087L157.309 23.3385H161.792L161.194 21.8888C158.056 14.1915 151.928 9.95214 143.921 9.95214C141.43 9.95487 138.966 10.4518 136.671 11.4139C134.376 12.3759 132.298 13.7837 130.558 15.5546C128.818 17.3255 127.451 19.4239 126.538 21.7268C125.625 24.0296 125.183 26.4905 125.24 28.9652C125.335 33.8722 127.213 38.5792 130.529 42.2164C132.222 44.053 134.297 45.5022 136.609 46.4637C138.921 47.4252 141.416 47.8761 143.921 47.7851C147.74 47.887 151.488 46.7481 154.596 44.541C157.704 42.334 160.004 39.1794 161.145 35.5559L161.653 34.1462H157.306L157.046 34.7656Z" fill="black"/>
<path fill-rule="evenodd" clip-rule="evenodd" d="M32.7876 34.7656C30.0527 40.7919 25.5782 43.8473 19.4866 43.8473C11.3103 43.8473 5.13954 37.42 5.13954 28.8998C5.13954 20.136 11.2251 13.7637 19.6092 13.7637C25.7157 13.7637 30.1453 16.7731 32.7727 22.7087L33.0521 23.3385H37.5356L36.9378 21.8888C33.7994 14.1915 27.672 9.95214 19.663 9.95214C17.1744 9.95745 14.7119 10.4562 12.4196 11.4192C10.1273 12.3822 8.05141 13.79 6.3134 15.5604C4.57539 17.3307 3.21021 19.4279 2.29781 21.7291C1.38541 24.0303 0.944128 26.4894 0.999799 28.9622C1.09597 33.8689 2.97452 38.5755 6.2888 42.2134C7.9824 44.0498 10.057 45.4989 12.3692 46.4603C14.6815 47.4218 17.1762 47.8728 19.6809 47.7821C23.4997 47.8845 27.2479 46.7459 30.3566 44.5391C33.4654 42.3323 35.7649 39.1779 36.9064 35.5544L37.416 34.1447H33.0701L32.7876 34.7656Z" fill="black"/>
<path fill-rule="evenodd" clip-rule="evenodd" d="M196.587 34.7746C193.997 40.624 189.276 43.8458 183.295 43.8458C175.483 43.8458 169.885 38.6336 169.049 30.7744H202L201.976 29.6975C201.714 17.8886 194.13 9.95511 183.105 9.95511C178.135 10.0631 173.412 12.1252 169.969 15.6892C166.527 19.2533 164.647 24.0285 164.741 28.9681C164.697 31.4303 165.149 33.8763 166.069 36.1626C166.989 38.449 168.359 40.5297 170.099 42.2827C171.839 44.0356 173.914 45.4256 176.202 46.371C178.49 47.3164 180.944 47.7982 183.422 47.7881C191.32 47.7881 197.498 43.4641 200.818 35.6079L201.436 34.1447H196.866L196.587 34.7746ZM183.485 13.7637C190.818 13.7637 196.082 18.6476 197.46 26.5856H169.134C170.541 18.759 176.063 13.7637 183.482 13.7637" fill="black"/>
<path d="M18.2014 71.7653H17.2584V62.5559H22.8463V63.4144H18.2014V66.5442H22.5205V67.4027H18.2014V71.7653Z" fill="black"/>
<path d="M23.9208 71.7653H22.8149L26.85 62.5559H27.7661L31.8013 71.7653H30.7028L29.6821 69.3456H24.9445L23.9208 71.7653ZM25.2942 68.487H29.301L27.2983 63.6476L25.2942 68.487Z" fill="black"/>
<path d="M37.7448 64.0769C37.5489 63.7869 37.2807 63.5524 36.9664 63.3962C36.6521 63.24 36.3024 63.1675 35.9514 63.1857C35.708 63.1858 35.4656 63.2188 35.2311 63.2837C35.0034 63.3447 34.7884 63.4453 34.5959 63.5808C34.4079 63.7177 34.2544 63.8962 34.1476 64.1022C34.0303 64.3321 33.9718 64.5871 33.9772 64.8449C33.9662 65.0219 33.9918 65.1993 34.0525 65.3661C34.1132 65.533 34.2076 65.6857 34.3299 65.8148C34.5842 66.0563 34.8818 66.2482 35.2072 66.3808C35.5802 66.5362 35.9625 66.6687 36.352 66.7774C36.7508 66.888 37.135 67.045 37.4967 67.2453C37.842 67.4371 38.1413 67.7012 38.374 68.0191C38.6289 68.4091 38.7524 68.8694 38.7267 69.3337C38.7323 69.7254 38.6399 70.1123 38.4577 70.4596C38.285 70.7863 38.044 71.0725 37.7508 71.2989C37.4553 71.5259 37.1233 71.7016 36.7689 71.8188C36.4173 71.9387 36.0482 72.0004 35.6765 72.0015C35.1213 72.0039 34.5714 71.8953 34.0594 71.6821C33.5372 71.4618 33.0866 71.1018 32.7577 70.6423L33.6215 70.0319C33.8228 70.3714 34.1111 70.6517 34.457 70.8444C34.8442 71.0559 35.281 71.1615 35.7228 71.1504C35.9618 71.1495 36.1992 71.1119 36.4267 71.039C36.6551 70.9686 36.8692 70.8584 37.0589 70.7137C37.2466 70.5698 37.404 70.3906 37.5222 70.1863C37.6463 69.9682 37.7093 69.721 37.7045 69.4704C37.7152 69.1897 37.6447 68.9118 37.5012 68.6697C37.3639 68.455 37.1807 68.273 36.9647 68.1365C36.7277 67.9861 36.4726 67.8659 36.2055 67.7785C35.9216 67.6795 35.6291 67.5839 35.3282 67.4918C35.0293 67.3968 34.7305 67.2883 34.4525 67.1665C34.1778 67.0508 33.9219 66.8951 33.6933 66.7046C33.4657 66.5114 33.2827 66.2718 33.1568 66.002C33.0107 65.6683 32.9413 65.3065 32.9535 64.9429C32.9442 64.5419 33.0318 64.1446 33.2091 63.7843C33.3715 63.4641 33.6038 63.1839 33.889 62.9643C34.1768 62.7456 34.5033 62.5824 34.8515 62.4831C35.6818 62.2469 36.5661 62.2786 37.3772 62.5737C37.8412 62.7633 38.2516 63.0626 38.5728 63.4456L37.7448 64.0769Z" fill="black"/>
<path d="M40.68 62.5559H41.623V66.5442H46.6744V62.5559H47.6159V71.7653H46.6744V67.4072H41.623V71.7653H40.68V62.5559Z" fill="black"/>
<path d="M51.1669 62.5559H50.2238V71.7653H51.1669V62.5559Z" fill="black"/>
<path d="M62.8747 67.1606C62.882 67.8244 62.7576 68.4831 62.5085 69.099C62.2787 69.6701 61.9352 70.1892 61.4986 70.6251C61.062 71.0611 60.5414 71.4049 59.9679 71.6361C58.7363 72.1219 57.3646 72.1219 56.133 71.6361C55.5597 71.4047 55.0392 71.0608 54.6026 70.6249C54.1661 70.1889 53.8225 69.67 53.5924 69.099C53.1036 67.8524 53.1036 66.4688 53.5924 65.2222C53.8224 64.6513 54.166 64.1326 54.6026 63.6969C55.0391 63.2612 55.5597 62.9176 56.133 62.6866C57.3646 62.2008 58.7363 62.2008 59.9679 62.6866C60.5414 62.9173 61.062 63.2609 61.4986 63.6966C61.9352 64.1323 62.2787 64.6512 62.5085 65.2222C62.7576 65.8381 62.882 66.4968 62.8747 67.1606ZM61.8539 67.1606C61.8563 66.6443 61.7678 66.1315 61.5924 65.6455C61.4277 65.1788 61.174 64.7481 60.8452 64.377C60.5115 64.0073 60.1044 63.7104 59.6496 63.505C59.1449 63.2904 58.6017 63.1797 58.0527 63.1797C57.5038 63.1797 56.9605 63.2904 56.4558 63.505C56.0011 63.7106 55.594 64.0075 55.2603 64.377C54.9314 64.7481 54.6777 65.1788 54.513 65.6455C54.1645 66.6264 54.1645 67.6963 54.513 68.6772C54.6775 69.1439 54.9313 69.5747 55.2603 69.9457C55.5943 70.3149 56.0013 70.6117 56.4558 70.8176C56.9605 71.0323 57.5038 71.1429 58.0527 71.1429C58.6017 71.1429 59.1449 71.0323 59.6496 70.8176C60.1043 70.6119 60.5113 70.3151 60.8452 69.9457C61.1741 69.5747 61.4279 69.1439 61.5924 68.6772C61.7679 68.1912 61.8564 67.6784 61.8539 67.1621" fill="black"/>
<path d="M71.5995 70.3601H71.6249V62.5559H72.568V71.7653H71.3903L65.8607 63.8823H65.8353V71.7653H64.8937V62.5559H66.0714L71.5995 70.3601Z" fill="black"/>
<path d="M84.9109 69.6308L86.9913 71.7638H85.6552L84.3475 70.4106C84.0056 70.8647 83.5893 71.2583 83.1161 71.5752C82.6374 71.869 82.0823 72.0162 81.52 71.9985C81.1442 72 80.7707 71.9408 80.414 71.8232C80.0736 71.7133 79.758 71.5388 79.4845 71.3093C79.2165 71.0816 79 70.8002 78.8493 70.4834C78.6874 70.135 78.6072 69.7546 78.6147 69.3708C78.6104 69.0548 78.6683 68.741 78.785 68.4469C78.8969 68.1752 79.054 67.9241 79.2498 67.7042C79.4492 67.4795 79.6756 67.28 79.9238 67.1101C80.1767 66.9363 80.4436 66.7838 80.7219 66.6541C80.4398 66.3529 80.1895 66.0239 79.9746 65.6722C79.7536 65.3193 79.6376 64.9115 79.6399 64.4958C79.6337 64.179 79.6938 63.8644 79.8162 63.5719C79.9276 63.3113 80.0949 63.0781 80.3064 62.8886C80.5192 62.6998 80.7684 62.5558 81.0387 62.4653C81.3337 62.3654 81.6433 62.3152 81.9549 62.3167C82.2484 62.3151 82.5402 62.3613 82.8187 62.4534C83.0795 62.5393 83.3214 62.6739 83.5315 62.85C83.7387 63.0262 83.9041 63.2459 84.0158 63.4931C84.1386 63.7741 84.1988 64.0781 84.1921 64.3844C84.1962 64.6658 84.1332 64.9443 84.0083 65.1969C83.8847 65.4377 83.7233 65.6573 83.5301 65.8475C83.3307 66.0459 83.1091 66.2209 82.8695 66.3689C82.6254 66.5204 82.3858 66.657 82.1506 66.7788L84.2833 68.9639L85.5521 66.7788H86.6132L84.9109 69.6308ZM81.3122 67.2378C81.0064 67.4121 80.7468 67.5745 80.5336 67.725C80.3381 67.8591 80.1639 68.0212 80.0165 68.2063C79.8893 68.3684 79.7917 68.5514 79.7281 68.747C79.6651 68.9535 79.6344 69.1684 79.6369 69.3842C79.634 69.6316 79.6877 69.8764 79.7938 70.1002C79.8938 70.3109 80.0363 70.4989 80.2123 70.6527C80.5798 70.9681 81.0494 71.1411 81.5349 71.14C81.7682 71.1429 82.0005 71.1078 82.2224 71.036C82.4263 70.9666 82.6198 70.8702 82.7977 70.7493C82.9804 70.6242 83.1492 70.4803 83.3014 70.32C83.4578 70.1556 83.6103 69.9779 83.7587 69.7868L81.3122 67.2378ZM83.2551 64.3888C83.2615 64.2242 83.2313 64.0602 83.1668 63.9085C83.1022 63.7568 83.0048 63.621 82.8814 63.511C82.6315 63.2894 82.306 63.171 81.9713 63.1797C81.6071 63.1695 81.253 63.3 80.9834 63.5436C80.8493 63.6703 80.7442 63.8243 80.6753 63.995C80.6064 64.1657 80.5754 64.3492 80.5844 64.5329C80.5874 64.7013 80.6256 64.8672 80.6965 65.0201C80.7686 65.1863 80.8562 65.3455 80.958 65.4955C81.0549 65.6382 81.1602 65.7751 81.2734 65.9054C81.3578 66.0073 81.4518 66.1008 81.5543 66.1847C81.7297 66.0797 81.9175 65.9733 82.1178 65.8653C82.3144 65.7592 82.5005 65.6349 82.6737 65.494C82.8402 65.3588 82.9818 65.196 83.0922 65.0127C83.2028 64.8235 83.2592 64.6077 83.2551 64.3888Z" fill="black"/>
<path d="M92.6195 62.5559H93.5626V66.5442H98.6139V62.5559H99.5555V71.7653H98.6139V67.4072H93.5626V71.7653H92.6195V62.5559Z" fill="black"/>
<path d="M111.244 67.1606C111.251 67.8244 111.127 68.4831 110.878 69.099C110.648 69.67 110.304 70.1889 109.868 70.6249C109.431 71.0608 108.91 71.4047 108.337 71.6361C107.106 72.1218 105.735 72.1218 104.504 71.6361C103.93 71.4047 103.41 71.0608 102.973 70.6249C102.537 70.1889 102.193 69.67 101.963 69.099C101.473 67.8526 101.473 66.4686 101.963 65.2222C102.193 64.6513 102.537 64.1326 102.973 63.6969C103.41 63.2612 103.93 62.9176 104.504 62.6866C105.735 62.2009 107.106 62.2009 108.337 62.6866C108.91 62.9176 109.431 63.2612 109.868 63.6969C110.304 64.1326 110.648 64.6513 110.878 65.2222C111.127 65.8381 111.251 66.4968 111.244 67.1606ZM110.225 67.1606C110.227 66.6443 110.138 66.1316 109.963 65.6455C109.798 65.179 109.544 64.7484 109.216 64.377C108.882 64.0073 108.475 63.7104 108.02 63.505C107.516 63.2904 106.972 63.1797 106.423 63.1797C105.874 63.1797 105.331 63.2904 104.827 63.505C104.372 63.7106 103.965 64.0075 103.631 64.377C103.302 64.7481 103.048 65.1788 102.884 65.6455C102.535 66.6264 102.535 67.6963 102.884 68.6772C103.048 69.1439 103.302 69.5747 103.631 69.9457C103.965 70.3149 104.372 70.6117 104.827 70.8176C105.331 71.0323 105.874 71.1429 106.423 71.1429C106.972 71.1429 107.516 71.0323 108.02 70.8176C108.475 70.6119 108.882 70.3151 109.216 69.9457C109.545 69.5745 109.798 69.1438 109.963 68.6772C110.138 68.1911 110.227 67.6784 110.225 67.1621" fill="black"/>
<path d="M117.836 70.0482L120.963 62.5559H122.402V71.7653H121.459V63.8036H121.433L118.083 71.7653H117.585L114.234 63.8036H114.209V71.7653H113.266V62.5559H114.705L117.836 70.0482Z" fill="black"/>
<path d="M125.947 70.9067H130.907V71.7653H125.004V62.5559H130.742V63.4144H125.939V66.5442H130.423V67.4027H125.939L125.947 70.9067Z" fill="black"/>
<path d="M145.956 67.1606C145.964 67.8244 145.839 68.4831 145.59 69.099C145.36 69.6701 145.017 70.1892 144.58 70.6251C144.144 71.0611 143.623 71.4049 143.05 71.6361C141.818 72.1219 140.446 72.1219 139.215 71.6361C138.641 71.4047 138.121 71.0608 137.684 70.6249C137.248 70.1889 136.904 69.67 136.674 69.099C136.185 67.8524 136.185 66.4688 136.674 65.2222C136.904 64.6513 137.248 64.1326 137.684 63.6969C138.121 63.2612 138.641 62.9176 139.215 62.6866C140.446 62.2008 141.818 62.2008 143.05 62.6866C143.623 62.9173 144.144 63.2609 144.58 63.6966C145.017 64.1323 145.36 64.6512 145.59 65.2222C145.839 65.8381 145.964 66.4968 145.956 67.1606ZM144.936 67.1606C144.938 66.6443 144.85 66.1315 144.674 65.6455C144.509 65.1788 144.256 64.7481 143.927 64.377C143.593 64.0073 143.186 63.7104 142.731 63.505C142.227 63.2904 141.683 63.1797 141.134 63.1797C140.585 63.1797 140.042 63.2904 139.538 63.505C139.083 63.7106 138.676 64.0075 138.342 64.377C138.013 64.7481 137.759 65.1788 137.595 65.6455C137.246 66.6264 137.246 67.6963 137.595 68.6772C137.759 69.1439 138.013 69.5747 138.342 69.9457C138.676 70.3149 139.083 70.6117 139.538 70.8176C140.042 71.0323 140.585 71.1429 141.134 71.1429C141.683 71.1429 142.227 71.0323 142.731 70.8176C143.186 70.6119 143.593 70.3151 143.927 69.9457C144.256 69.5747 144.51 69.1439 144.674 68.6772C144.85 68.1912 144.938 67.6784 144.936 67.1621" fill="black"/>
<path d="M154.627 68.3266C154.624 68.7358 154.578 69.1435 154.49 69.5432C154.399 69.9695 154.223 70.3734 153.973 70.7315C153.701 71.111 153.342 71.421 152.927 71.6361C152.392 71.8721 151.813 71.9941 151.228 71.9941C150.643 71.9941 150.065 71.8721 149.53 71.6361C149.118 71.4192 148.764 71.1094 148.496 70.7315C148.245 70.3737 148.069 69.9697 147.978 69.5432C147.89 69.1436 147.844 68.7358 147.841 68.3266V62.5559H148.784V68.2271C148.777 68.6104 148.821 68.993 148.914 69.3649C148.987 69.6482 149.104 69.9184 149.261 70.1655C149.389 70.3652 149.553 70.5395 149.745 70.6795C149.911 70.7999 150.091 70.8997 150.281 70.9766C150.448 71.0429 150.621 71.0888 150.799 71.1132C150.942 71.1333 151.086 71.1442 151.23 71.1459C151.372 71.1437 151.514 71.1328 151.655 71.1132C151.834 71.0893 152.01 71.0434 152.178 70.9766C152.369 70.8998 152.55 70.8 152.716 70.6795C152.908 70.5394 153.072 70.3652 153.2 70.1655C153.357 69.9183 153.474 69.6481 153.547 69.3649C153.64 68.993 153.684 68.6104 153.677 68.2271V62.5559H154.62L154.627 68.3266Z" fill="black"/>
<path d="M160.151 71.7653H159.208V63.4144H156.105V62.5559H163.252V63.4144H160.151V71.7653Z" fill="black"/>
<path d="M165.743 70.9067H170.063V71.7653H164.8V62.5559H165.743V70.9067Z" fill="black"/>
<path d="M172.484 70.9067H177.444V71.7653H171.542V62.5559H177.288V63.4144H172.485V66.5442H176.969V67.4027H172.485L172.484 70.9067Z" fill="black"/>
<path d="M182.637 71.7653H181.694V63.4144H178.592V62.5559H185.738V63.4144H182.637V71.7653Z" fill="black"/>
</svg>
