<svg width="25" height="20" viewBox="0 0 25 20" fill="none" xmlns="http://www.w3.org/2000/svg">
<path d="M0 1H4.65417L9.55917 13.1291H20.6512L24.0234 4.07538H10.2002" stroke="#010000" stroke-miterlimit="10"/>
<path d="M10.4511 18.7912C11.2053 18.7912 11.8166 18.1606 11.8166 17.3828C11.8166 16.605 11.2053 15.9745 10.4511 15.9745C9.69685 15.9745 9.08545 16.605 9.08545 17.3828C9.08545 18.1606 9.69685 18.7912 10.4511 18.7912Z" stroke="#010000" stroke-miterlimit="10"/>
<path d="M19.7036 18.7912C20.4578 18.7912 21.0692 18.1606 21.0692 17.3828C21.0692 16.605 20.4578 15.9745 19.7036 15.9745C18.9494 15.9745 18.338 16.605 18.338 17.3828C18.338 18.1606 18.9494 18.7912 19.7036 18.7912Z" stroke="#010000" stroke-miterlimit="10"/>
</svg>
