<svg width="22" height="20" viewBox="0 0 22 20" fill="none" xmlns="http://www.w3.org/2000/svg">
<path d="M19.6763 2.80082C18.6893 1.62637 17.2975 1 15.8044 1C14.3113 1 12.3374 2.30494 11.5782 3.4011C11.3757 3.68819 11.2239 3.97527 11.072 4.23626C10.9202 3.97527 10.7683 3.68819 10.5659 3.4011C9.80669 2.30494 8.46545 1 6.33969 1C4.21394 1 3.45474 1.65247 2.46778 2.80082C1.53144 3.92308 1 5.38462 1 6.97665C1 8.56868 1.65797 10.3173 3.04984 12.0398C4.31517 13.5797 6.11193 15.1717 8.21238 16.9986C8.99689 17.6772 9.80669 18.3819 10.6671 19.1648H10.6924C10.7937 19.2953 10.9455 19.3475 11.072 19.3475C11.1986 19.3475 11.3504 19.2953 11.4516 19.1909H11.4769C12.3374 18.3819 13.1472 17.6772 13.9317 16.9986C16.0321 15.1717 17.8289 13.5797 19.0942 12.0398C20.5114 10.3173 21.1441 8.69918 21.1441 6.97665C21.1441 5.25412 20.6126 3.89698 19.6763 2.80082V2.80082Z" stroke="#010000" stroke-miterlimit="10"/>
</svg>
